<svg width="25" height="25" viewBox="0 0 25 25" fill="none" xmlns="http://www.w3.org/2000/svg">
<path fill-rule="evenodd" clip-rule="evenodd" d="M22.2 12.5C22.2 18.0228 17.7228 22.5 12.2 22.5C6.67715 22.5 2.2 18.0228 2.2 12.5C2.2 6.97715 6.67715 2.5 12.2 2.5C17.7228 2.5 22.2 6.97715 22.2 12.5ZM15.2 9.5C15.2 11.1569 13.8569 12.5 12.2 12.5C10.5431 12.5 9.2 11.1569 9.2 9.5C9.2 7.84315 10.5431 6.5 12.2 6.5C13.8569 6.5 15.2 7.84315 15.2 9.5ZM12.2 21C13.984 21 15.6397 20.4504 17.0069 19.5112C17.6108 19.0964 17.8688 18.3062 17.5178 17.6632C16.7899 16.3303 15.2902 15.5 12.1999 15.5C9.10969 15.5 7.60996 16.3302 6.88214 17.6632C6.53104 18.3062 6.7891 19.0963 7.39295 19.5111C8.76018 20.4503 10.4159 21 12.2 21Z" fill="#007CEE"/>
</svg>
