<svg width="25" height="25" viewBox="0 0 25 25" fill="none" xmlns="http://www.w3.org/2000/svg">
<path d="M11.4693 22.0102L12.1147 22.3922L11.4693 22.0102ZM11.7287 21.5719L11.0833 21.1899L11.7287 21.5719ZM9.47119 21.5719L10.1166 21.1899L10.1166 21.1899L9.47119 21.5719ZM9.73062 22.0102L9.0852 22.3922L9.73062 22.0102ZM2.90446 17.6308L3.59737 17.3438H3.59737L2.90446 17.6308ZM6.88928 20.085L6.91326 19.3354L6.88928 20.085ZM5.06924 19.7956L4.78223 20.4885H4.78223L5.06924 19.7956ZM18.2955 17.6308L18.9884 17.9178L18.9884 17.9178L18.2955 17.6308ZM14.3106 20.085L14.2867 19.3354L14.3106 20.085ZM16.1307 19.7956L16.4177 20.4885L16.1307 19.7956ZM16.69 7.08944L17.0818 6.44996V6.44996L16.69 7.08944ZM18.0105 8.41001L18.65 8.01814V8.01814L18.0105 8.41001ZM4.50998 7.08944L4.11811 6.44996V6.44996L4.50998 7.08944ZM3.18942 8.41001L2.54993 8.01814H2.54993L3.18942 8.41001ZM8.51635 20.3223L8.13451 20.9679H8.13451L8.51635 20.3223ZM12.1147 22.3922L12.3741 21.9539L11.0833 21.1899L10.8239 21.6282L12.1147 22.3922ZM8.82577 21.9539L9.0852 22.3922L10.376 21.6282L10.1166 21.1899L8.82577 21.9539ZM10.8239 21.6282C10.7785 21.7049 10.6992 21.75 10.6 21.75C10.5007 21.75 10.4214 21.7049 10.376 21.6282L9.0852 22.3922C9.76215 23.5359 11.4378 23.5359 12.1147 22.3922L10.8239 21.6282ZM9.39998 7.25H11.8V5.75H9.39998V7.25ZM17.85 13.3V14.1H19.35V13.3H17.85ZM3.34998 14.1V13.3H1.84998V14.1H3.34998ZM1.84998 14.1C1.84998 15.0217 1.84957 15.7504 1.88978 16.3397C1.93044 16.9357 2.01514 17.4436 2.21155 17.9178L3.59737 17.3438C3.48929 17.0828 3.42175 16.7573 3.3863 16.2376C3.35038 15.7112 3.34998 15.0422 3.34998 14.1H1.84998ZM6.91326 19.3354C6.12099 19.31 5.69044 19.2411 5.35626 19.1027L4.78223 20.4885C5.37909 20.7357 6.03742 20.8081 6.8653 20.8346L6.91326 19.3354ZM2.21155 17.9178C2.69364 19.0817 3.61834 20.0064 4.78223 20.4885L5.35626 19.1027C4.55991 18.7728 3.92722 18.1401 3.59737 17.3438L2.21155 17.9178ZM17.85 14.1C17.85 15.0422 17.8496 15.7112 17.8137 16.2376C17.7782 16.7573 17.7107 17.0828 17.6026 17.3438L18.9884 17.9178C19.1848 17.4436 19.2695 16.9357 19.3102 16.3397C19.3504 15.7504 19.35 15.0217 19.35 14.1H17.85ZM14.3346 20.8346C15.1625 20.8081 15.8209 20.7357 16.4177 20.4885L15.8437 19.1027C15.5095 19.2411 15.0789 19.31 14.2867 19.3354L14.3346 20.8346ZM17.6026 17.3438C17.2727 18.1401 16.64 18.7728 15.8437 19.1027L16.4177 20.4885C17.5816 20.0064 18.5063 19.0817 18.9884 17.9178L17.6026 17.3438ZM11.8 7.25C13.1239 7.25 14.0641 7.25079 14.7953 7.32031C15.5153 7.38877 15.9548 7.51855 16.2981 7.72892L17.0818 6.44996C16.4633 6.07089 15.7671 5.90595 14.9373 5.82705C14.1186 5.74921 13.0948 5.75 11.8 5.75V7.25ZM19.35 13.3C19.35 12.0052 19.3508 10.9814 19.2729 10.1627C19.194 9.33288 19.0291 8.63673 18.65 8.01814L17.3711 8.80189C17.5814 9.14518 17.7112 9.58466 17.7797 10.3047C17.8492 11.0359 17.85 11.9761 17.85 13.3H19.35ZM16.2981 7.72892C16.7354 7.9969 17.1031 8.36458 17.3711 8.80189L18.65 8.01814C18.2584 7.379 17.721 6.84163 17.0818 6.44996L16.2981 7.72892ZM9.39998 5.75C8.10513 5.75 7.08132 5.74921 6.26266 5.82705C5.43284 5.90595 4.73669 6.07089 4.11811 6.44996L4.90186 7.72892C5.24515 7.51855 5.68462 7.38877 6.40464 7.32031C7.13583 7.25079 8.07608 7.25 9.39998 7.25V5.75ZM3.34998 13.3C3.34998 11.9761 3.35077 11.0359 3.42029 10.3047C3.48875 9.58466 3.61853 9.14518 3.8289 8.80189L2.54993 8.01814C2.17086 8.63673 2.00592 9.33288 1.92702 10.1627C1.84918 10.9814 1.84998 12.0052 1.84998 13.3H3.34998ZM4.11811 6.44996C3.47897 6.84163 2.9416 7.379 2.54993 8.01814L3.8289 8.80189C4.09688 8.36458 4.46455 7.9969 4.90186 7.72892L4.11811 6.44996ZM10.1166 21.1899C9.9158 20.8506 9.73967 20.5516 9.56886 20.3164C9.38914 20.069 9.18325 19.8454 8.89819 19.6768L8.13451 20.9679C8.18061 20.9951 8.24425 21.0451 8.35522 21.1979C8.47509 21.363 8.6108 21.5907 8.82577 21.9539L10.1166 21.1899ZM6.8653 20.8346C7.31075 20.8489 7.59549 20.8587 7.81179 20.8851C8.01629 20.91 8.09303 20.9433 8.13451 20.9679L8.89819 19.6768C8.60851 19.5055 8.30368 19.4339 7.99342 19.3961C7.69496 19.3597 7.33175 19.3488 6.91326 19.3354L6.8653 20.8346ZM12.3741 21.9539C12.5891 21.5907 12.7248 21.363 12.8447 21.1979C12.9557 21.0451 13.0193 20.9951 13.0654 20.9679L12.3017 19.6768C12.0167 19.8454 11.8108 20.069 11.6311 20.3164C11.4602 20.5516 11.2841 20.8506 11.0833 21.1899L12.3741 21.9539ZM14.2867 19.3354C13.8682 19.3488 13.505 19.3597 13.2065 19.3961C12.8962 19.4339 12.5914 19.5055 12.3017 19.6768L13.0654 20.9679C13.1069 20.9433 13.1836 20.91 13.3881 20.8851C13.6044 20.8587 13.8892 20.8489 14.3346 20.8346L14.2867 19.3354Z" fill="#A4A4A4"/>
<path d="M22.3145 12.9351L23.0074 13.2221V13.2221L22.3145 12.9351ZM20.285 14.9646L20.572 15.6575H20.572L20.285 14.9646ZM20.8093 3.0526L20.4174 3.69208V3.69208L20.8093 3.0526ZM22.0473 4.29064L22.6868 3.89876V3.89876L22.0473 4.29064ZM9.39055 3.0526L8.99868 2.41312V2.41312L9.39055 3.0526ZM8.15252 4.29064L7.51304 3.89876H7.51304L8.15252 4.29064ZM13.9749 3.25H16.2249V1.75H13.9749V3.25ZM21.8499 8.87503V9.62503H23.3499V8.87503H21.8499ZM21.8499 9.62503C21.8499 10.5089 21.8495 11.1343 21.816 11.6258C21.7829 12.1106 21.7201 12.4101 21.6216 12.6481L23.0074 13.2221C23.1943 12.7709 23.2742 12.2891 23.3125 11.7279C23.3503 11.1735 23.3499 10.4884 23.3499 9.62503H21.8499ZM21.6216 12.6481C21.3171 13.3832 20.7331 13.9672 19.998 14.2717L20.572 15.6575C21.6746 15.2008 22.5507 14.3247 23.0074 13.2221L21.6216 12.6481ZM16.2249 3.25C17.467 3.25 18.3459 3.25079 19.0286 3.31571C19.7002 3.37956 20.1042 3.50013 20.4174 3.69208L21.2012 2.41312C20.6126 2.05247 19.952 1.89674 19.1706 1.82244C18.4004 1.74921 17.4379 1.75 16.2249 1.75V3.25ZM23.3499 8.87503C23.3499 7.66201 23.3507 6.69958 23.2775 5.92935C23.2032 5.14796 23.0475 4.48729 22.6868 3.89876L21.4078 4.68251C21.5998 4.99574 21.7204 5.39973 21.7842 6.07133C21.8491 6.75408 21.8499 7.63296 21.8499 8.87503H23.3499ZM20.4174 3.69208C20.8211 3.93945 21.1605 4.27884 21.4078 4.68251L22.6868 3.89876C22.3158 3.29326 21.8067 2.78417 21.2012 2.41312L20.4174 3.69208ZM13.9749 1.75C12.7619 1.75 11.7995 1.74921 11.0293 1.82244C10.2479 1.89674 9.58721 2.05247 8.99868 2.41312L9.78243 3.69208C10.0957 3.50013 10.4996 3.37956 11.1712 3.31571C11.854 3.25079 12.7329 3.25 13.9749 3.25V1.75ZM8.99868 2.41312C8.39318 2.78417 7.88409 3.29326 7.51304 3.89876L8.792 4.68251C9.03937 4.27884 9.37876 3.93945 9.78243 3.69208L8.99868 2.41312ZM8.38217 6.53896C8.43212 5.57858 8.55704 5.06594 8.792 4.68251L7.51304 3.89876C7.07591 4.61209 6.93745 5.43717 6.88419 6.46104L8.38217 6.53896ZM18.6249 15.9848C19.3915 15.9593 20.0093 15.8906 20.572 15.6575L19.998 14.2717C19.696 14.3968 19.3039 14.4614 18.5751 14.4857L18.6249 15.9848Z" fill="#A4A4A4"/>
<path d="M7.10907 13.5H7.11807M10.5998 13.5H10.6088M14.0908 13.5H14.0998" stroke="#A4A4A4" stroke-width="2" stroke-linecap="round" stroke-linejoin="round"/>
</svg>
