<svg width="25" height="25" viewBox="0 0 25 25" fill="none" xmlns="http://www.w3.org/2000/svg">
<path d="M12.05 18.5C12.05 18.9142 12.3858 19.25 12.8 19.25C13.2142 19.25 13.55 18.9142 13.55 18.5V15.5C13.55 15.0858 13.2142 14.75 12.8 14.75C12.3858 14.75 12.05 15.0858 12.05 15.5V18.5Z" fill="#A4A4A4"/>
<path fill-rule="evenodd" clip-rule="evenodd" d="M12.8 1.75C12.0749 1.75 11.4134 1.94911 10.6893 2.2871C9.9883 2.61428 9.17771 3.09716 8.16182 3.70233L6.70621 4.56943C5.5871 5.23606 4.69534 5.76727 4.02014 6.27524C3.32312 6.79963 2.79998 7.3396 2.45906 8.05072C2.11797 8.76219 2.02553 9.5068 2.05518 10.3758C2.08388 11.217 2.23104 12.2397 2.41555 13.5219L2.70791 15.5537C2.94529 17.2036 3.13367 18.5128 3.4151 19.5322C3.70522 20.5829 4.11684 21.4169 4.85964 22.0565C5.60182 22.6956 6.48983 22.9814 7.57633 23.1177C8.63153 23.25 9.96279 23.25 11.6423 23.25H13.9577C15.6372 23.25 16.9685 23.25 18.0236 23.1177C19.1102 22.9814 19.9982 22.6956 20.7403 22.0565C21.4831 21.4169 21.8948 20.5829 22.1849 19.5322C22.4663 18.5129 22.6547 17.2036 22.8921 15.5537L23.1844 13.5219C23.3689 12.2396 23.5161 11.217 23.5448 10.3758C23.5745 9.5068 23.482 8.76219 23.1409 8.05072C22.8 7.3396 22.2769 6.79963 21.5798 6.27524C20.9046 5.76727 20.0129 5.23606 18.8938 4.56943L17.4382 3.70233C16.4223 3.09716 15.6117 2.61428 14.9107 2.2871C14.1866 1.94911 13.5251 1.75 12.8 1.75ZM8.89557 5.01121C9.95307 4.38126 10.6992 3.93781 11.3237 3.64633C11.9328 3.36203 12.3707 3.25 12.8 3.25C13.2292 3.25 13.6672 3.36203 14.2763 3.64633C14.9008 3.93781 15.6469 4.38126 16.7044 5.01121L18.0892 5.83615C19.2536 6.52973 20.0752 7.02034 20.6781 7.4739C21.2665 7.91662 21.5888 8.28294 21.7883 8.69917C21.9877 9.11505 22.0706 9.59337 22.0457 10.3247C22.0201 11.0745 21.8856 12.0163 21.6936 13.3511L21.4148 15.2884C21.1683 17.0016 20.9921 18.2162 20.739 19.133C20.4916 20.0289 20.1939 20.5476 19.7616 20.9198C19.3287 21.2926 18.7675 21.5127 17.837 21.6294C16.8859 21.7486 15.6487 21.75 13.9061 21.75H11.6939C9.95123 21.75 8.71404 21.7486 7.76298 21.6294C6.83244 21.5127 6.27128 21.2926 5.8384 20.9198C5.40613 20.5476 5.10837 20.0289 4.86101 19.133C4.60789 18.2162 4.43169 17.0016 4.18518 15.2884L3.90642 13.351C3.71436 12.0163 3.57989 11.0745 3.55431 10.3247C3.52936 9.59337 3.61228 9.11505 3.81165 8.69917C4.0112 8.28294 4.33346 7.91662 4.92192 7.4739C5.5248 7.02034 6.34642 6.52973 7.51073 5.83615L8.89557 5.01121Z" fill="#A4A4A4"/>
</svg>
