<svg width="25" height="25" viewBox="0 0 25 25" fill="none" xmlns="http://www.w3.org/2000/svg">
<path d="M4.19417 12.5291C4.73134 9.84329 4.99992 8.50036 5.88739 7.63543C6.05142 7.47557 6.22887 7.3301 6.4178 7.20061C7.43998 6.5 8.80949 6.5 11.5485 6.5H13.2515C15.9905 6.5 17.36 6.5 18.3822 7.20061C18.5711 7.3301 18.7486 7.47557 18.9126 7.63543C19.8001 8.50036 20.0687 9.84329 20.6058 12.5291C21.377 16.3851 21.7626 18.3131 20.875 19.6793C20.7142 19.9267 20.5266 20.1555 20.3156 20.3616C19.15 21.5 17.1838 21.5 13.2515 21.5H11.5485C7.61616 21.5 5.64997 21.5 4.4844 20.3616C4.27335 20.1555 4.08576 19.9267 3.92503 19.6793C3.03737 18.3131 3.42297 16.3851 4.19417 12.5291Z" stroke="#A4A4A4" stroke-width="1.5"/>
<circle cx="15.4" cy="9.5" r="1" fill="#A4A4A4"/>
<circle cx="9.39999" cy="9.5" r="1" fill="#A4A4A4"/>
<path d="M9.39999 6.5V5.5C9.39999 3.84315 10.7431 2.5 12.4 2.5C14.0568 2.5 15.4 3.84315 15.4 5.5V6.5" stroke="#A4A4A4" stroke-width="1.5" stroke-linecap="round"/>
</svg>
