<svg width="25" height="25" viewBox="0 0 25 25" fill="none" xmlns="http://www.w3.org/2000/svg">
<path fill-rule="evenodd" clip-rule="evenodd" d="M8.65026 6.51346C8.65019 6.50898 8.65015 6.50449 8.65015 6.5V5.5C8.65015 3.42893 10.3291 1.75 12.4001 1.75C14.4712 1.75 16.1501 3.42893 16.1501 5.5V6.5C16.1501 6.5045 16.1501 6.50898 16.15 6.51346C17.4474 6.54975 18.2376 6.68393 18.8427 7.17997C19.6721 7.85995 19.903 9.0144 20.3648 11.3233L20.9648 14.3233C21.6289 17.6437 21.9609 19.3039 21.0607 20.402C20.1606 21.5 18.4675 21.5 15.0813 21.5H9.71895C6.33277 21.5 4.63968 21.5 3.73951 20.402C2.83934 19.3039 3.17138 17.6437 3.83546 14.3233L4.43546 11.3233C4.89725 9.0144 5.12814 7.85995 5.95757 7.17997C6.56266 6.68392 7.35288 6.54975 8.65026 6.51346ZM10.1501 5.5C10.1501 4.25736 11.1575 3.25 12.4001 3.25C13.6428 3.25 14.6501 4.25736 14.6501 5.5V6.5C14.6501 6.5 14.6501 6.5 14.6501 6.5C14.5945 6.49999 14.5383 6.5 14.4813 6.5H10.3189C10.262 6.5 10.2057 6.5 10.1501 6.50001C10.1501 6.50001 10.1501 6.50001 10.1501 6.50001V5.5ZM15.4001 10.5C15.9524 10.5 16.4001 10.0523 16.4001 9.5C16.4001 8.94772 15.9524 8.5 15.4001 8.5C14.8478 8.5 14.4001 8.94772 14.4001 9.5C14.4001 10.0523 14.8478 10.5 15.4001 10.5ZM10.4001 9.5C10.4001 10.0523 9.95241 10.5 9.40013 10.5C8.84784 10.5 8.40013 10.0523 8.40013 9.5C8.40013 8.94772 8.84784 8.5 9.40013 8.5C9.95241 8.5 10.4001 8.94772 10.4001 9.5Z" fill="#007CEE"/>
</svg>
